<svg xmlns="http://www.w3.org/2000/svg" width="108" height="108" viewBox="0 0 108 108">
  <g id="Group_113" data-name="Group 113" transform="translate(-666 -1692)">
    <circle id="Ellipse_38" data-name="Ellipse 38" cx="54" cy="54" r="54" transform="translate(666 1692)" fill="#6200EA" opacity="0.2"/>
    <path id="Path_778" data-name="Path 778" d="M36.747,0H8.253A8.26,8.26,0,0,0,0,8.253v18A8.26,8.26,0,0,0,8.253,34.5H36.747A8.26,8.26,0,0,0,45,26.253v-18A8.26,8.26,0,0,0,36.747,0ZM8.253,4.5H36.747A3.76,3.76,0,0,1,40.5,8.253V10H4.5V8.253A3.76,3.76,0,0,1,8.253,4.5ZM36.747,30H8.253A3.753,3.753,0,0,1,4.5,26.253V14.492h36V26.253A3.753,3.753,0,0,1,36.747,30Z" transform="translate(698 1729)" fill="#6200EA"/>
  </g>
</svg>
