<svg id="Group_29" data-name="Group 29" xmlns="http://www.w3.org/2000/svg" width="127.238" height="26.596" viewBox="0 0 127.238 26.596">
  <g id="Layer_2" data-name="Layer 2" transform="translate(50.312 0)">
    <g id="Layer_1" data-name="Layer 1">
      <g id="facebook">
        <path id="Path_239" data-name="Path 239" d="M21.863,0H4.733A4.738,4.738,0,0,0,0,4.733v17.13A4.738,4.738,0,0,0,4.733,26.6h8.835V16.756h-2.93V13.361h2.93v-2.5c0-2.908,1.776-4.508,4.368-4.508a24.135,24.135,0,0,1,2.619.135V9.521h-1.8c-1.411,0-1.681.667-1.681,1.65v2.168H20.43l-.451,3.394h-2.9V26.6h4.787A4.738,4.738,0,0,0,26.6,21.863V4.733A4.738,4.738,0,0,0,21.863,0Z" fill="#555"/>
      </g>
    </g>
  </g>
  <g id="Layer_2-2" data-name="Layer 2" transform="translate(100.625 0)">
    <g id="Layer_1-2" data-name="Layer 1" transform="translate(0)">
      <g id="github">
        <path id="Path_351" data-name="Path 351" d="M13.28,0a13.294,13.294,0,0,0-2.254,26.4v-4.12h-.243a4.093,4.093,0,0,1-2.7-.87,3.566,3.566,0,0,1-.933-1.519c-.135-.365-.2-.509-.334-.609a1.262,1.262,0,0,0-.838-.144,1.132,1.132,0,0,1-.212-2.254,3.354,3.354,0,0,1,2.4.582,3.232,3.232,0,0,1,1.1,1.627,1.641,1.641,0,0,0,.338.64,2.281,2.281,0,0,0,1.483.27,3.2,3.2,0,0,1,.239-1,3.732,3.732,0,0,1,1.352-1.641c-3.417-.379-5.022-2.038-5.022-4.291a4.156,4.156,0,0,1,1.136-2.7c-.225-.784-.527-2.4.1-3.025a3.606,3.606,0,0,1,2.651,1.235,7.735,7.735,0,0,1,2.425-.464A7.6,7.6,0,0,1,16.4,8.52,3.606,3.606,0,0,1,19.05,7.285c.6.6.325,2.254.072,3.025a4.057,4.057,0,0,1,1.145,2.763c0,2.254-1.591,3.935-4.959,4.287A3.513,3.513,0,0,1,16.9,20.209V26.1A13.3,13.3,0,0,0,13.28,0Z" transform="translate(0.032 0)" fill="#555"/>
      </g>
    </g>
  </g>
  <g id="Layer_2-3" data-name="Layer 2" transform="translate(0 0)">
    <g id="Layer_1-3" data-name="Layer 1">
      <path id="linkedin" d="M21.863,0H4.733A4.738,4.738,0,0,0,0,4.733v17.13A4.738,4.738,0,0,0,4.733,26.6h17.13A4.738,4.738,0,0,0,26.6,21.863V4.733A4.738,4.738,0,0,0,21.863,0ZM9.566,20.06h-2.8V11.044h2.8ZM8.164,9.8A1.632,1.632,0,1,1,9.787,8.164,1.632,1.632,0,0,1,8.164,9.8Zm11.9,10.26h-2.8v-4.4c0-1.046,0-2.389-1.456-2.389s-1.681,1.149-1.681,2.317V20.06h-2.8V11.044h2.7v1.235h.041A2.939,2.939,0,0,1,16.7,10.819c2.835,0,3.358,1.871,3.358,4.3Z" fill="#555"/>
    </g>
  </g>
</svg>
