<svg id="Layer_1" data-name="Layer 1" xmlns="http://www.w3.org/2000/svg" width="34.295" height="34.295" viewBox="0 0 34.295 34.295">
  <g id="add_post" data-name="add post">
    <path id="Path_25" data-name="Path 25" d="M28.008,34.3H6.287A6.287,6.287,0,0,1,0,28.008V6.287A6.287,6.287,0,0,1,6.287,0h10.86a1.715,1.715,0,1,1,0,3.43H6.287A2.858,2.858,0,0,0,3.43,6.287v21.72a2.858,2.858,0,0,0,2.858,2.858h21.72a2.858,2.858,0,0,0,2.858-2.858V17.148a1.715,1.715,0,1,1,3.43,0v10.86A6.287,6.287,0,0,1,28.008,34.3Z" fill="#150f3f"/>
    <path id="Path_26" data-name="Path 26" d="M24.087,22.1ZM40.663,5.529,36.045.9a1.383,1.383,0,0,0-1.961,0L31.1,3.894,37.679,10.5l2.984-2.989a1.378,1.378,0,0,0,0-1.983ZM18.491,16.5a1.4,1.4,0,0,0-.366.634l-1.589,6.213a1.378,1.378,0,0,0,1.715,1.715l6.185-1.618a1.4,1.4,0,0,0,.634-.366L35.719,12.428,29.14,5.849Z" transform="translate(-7.06 -0.213)" fill="#150f3f"/>
  </g>
</svg>
