<svg xmlns="http://www.w3.org/2000/svg" width="108" height="108" viewBox="0 0 108 108">
  <g id="Group_118" data-name="Group 118" transform="translate(-1188 -1670)">
    <circle id="Ellipse_29" data-name="Ellipse 29" cx="54" cy="54" r="54" transform="translate(1188 1670)" fill="#6200EA" opacity="0.2"/>
    <g id="Layer_2" data-name="Layer 2" transform="translate(1071.525 1836.941)">
      <g id="Layer_1" data-name="Layer 1" transform="translate(148.475 -131.941)">
        <g id="shopping_cart-2" data-name="shopping cart-2" transform="translate(0 0)">
          <path id="Path_583" data-name="Path 583" d="M32.693,29.521H18.085A8.334,8.334,0,0,1,9.92,22.779L7.075,7.948A3.76,3.76,0,0,0,4.131,4.965L1.917,4.5A2.307,2.307,0,0,1,2.839.06L5.053.521a8.288,8.288,0,0,1,6.474,6.566l2.868,14.831a3.79,3.79,0,0,0,3.713,3.075H32.716a3.844,3.844,0,0,0,3.529-2.437l4.844-12.67a2.271,2.271,0,0,1,4.229,1.661L40.458,24.178a8.357,8.357,0,0,1-7.765,5.343Z" transform="translate(-0.475 -0.059)" fill="#6200EA"/>
          <circle id="Ellipse_20" data-name="Ellipse 20" cx="3.783" cy="3.783" r="3.783" transform="translate(28.228 33.722)" fill="#6200EA"/>
          <circle id="Ellipse_21" data-name="Ellipse 21" cx="3.783" cy="3.783" r="3.783" transform="translate(13.374 33.722)" fill="#6200EA"/>
          <path id="Path_584" data-name="Path 584" d="M30.649,16.821a2.306,2.306,0,0,1-1.6-.661L21.815,8.886A2.268,2.268,0,0,1,25.021,5.68l5.666,5.666L41.251.745a2.307,2.307,0,0,1,3.206,3.183L32.255,16.16A2.306,2.306,0,0,1,30.649,16.821Z" transform="translate(-5.266 -0.129)" fill="#6200EA"/>
        </g>
      </g>
    </g>
  </g>
</svg>
