<svg xmlns="http://www.w3.org/2000/svg" width="55" height="55" viewBox="0 0 55 55">
  <g id="Group_147" data-name="Group 147" transform="translate(-236 -803)">
    <g id="Group_93" data-name="Group 93" transform="translate(236 803)">
      <rect id="Rectangle_221" data-name="Rectangle 221" width="55" height="55" rx="10" fill="#4169e2" opacity="0.2"/>
    </g>
    <g id="Group_61" data-name="Group 61" transform="translate(249.499 814.249)">
      <g id="Group_56" data-name="Group 56" transform="translate(0 0)">
        <path id="Path_337" data-name="Path 337" d="M65.15,246.344a8.768,8.768,0,0,0-.026-.909,2.779,2.779,0,0,0-1.808-2.378,2.856,2.856,0,0,0-.933-.172c-.071,0-.141,0-.214,0s-.136,0-.2,0c-.9-.01-1.811,0-2.718,0-.17,0-.34-.024-.544-.042a2.313,2.313,0,0,0-1.536-2.605H47.089l-.039.016a2.314,2.314,0,0,0-1.495,2.587c-.225.016-.41.044-.6.044-.883.005-1.769-.008-2.652,0l-.2,0c-.1,0-.193,0-.29,0a2.849,2.849,0,0,0-1.51.457l-.071.047a2.375,2.375,0,0,0-.883,1.035l-.039.081c-.01.029-.024.06-.037.091a2.929,2.929,0,0,0-.212.839l-.008.1c-.024.267-.021.536-.021.807q0,8.525,0,17.055v4.758a6,6,0,0,0,.178,1.678c.269.888.878,1.361,2.14,1.892h21.5c1.2-.507,1.811-.964,2.093-1.782a5.528,5.528,0,0,0,.214-1.787v-5.427Q65.153,254.535,65.15,246.344ZM48.259,242.89h7.7v2.55h-7.7Zm14.314,25.547c-.005.525-.172.674-.708.669-2.78-.016-5.561-.013-8.341-.013H50.716c-2.8,0-5.589,0-8.385.013-.551.005-.713-.152-.711-.711v-.008q.012-4.539.013-9.08,0-6.581-.01-13.162a1.642,1.642,0,0,1,.018-.266v-.005a.435.435,0,0,1,.4-.421h.862a.064.064,0,0,1,.031,0c.666.005,1.338,0,2.025,0h.577c.008.063.013.125.016.183a5.437,5.437,0,0,0,.008.593,1.987,1.987,0,0,0,.985,1.591c.042.023.084.047.125.065a1.3,1.3,0,0,0,.125.055c.057.024.115.042.175.06a1.477,1.477,0,0,0,.186.042c.063.013.128.021.193.029s.131.008.2.008q4.562.016,9.13,0H56.7a1.966,1.966,0,0,0,2-1.85c.021-.227,0-.46,0-.776h.536c.687,0,1.359.008,2.028,0a.074.074,0,0,1,.034,0h.849c.342.052.423.277.423.692q-.008,5.1-.01,10.2v2.908q0,.988,0,1.973,0,1.619,0,3.232,0,1.968.008,3.933Z" transform="translate(-39.03 -240.23)" fill="#4169e2"/>
        <path id="Path_338" data-name="Path 338" d="M69.439,302.006a1.418,1.418,0,0,1-1.546,1.5c-.751.006-1.5.009-2.25.009-1.644.006-3.287,0-4.928-.009a1.446,1.446,0,0,1-1.576-1.482,1.375,1.375,0,0,1,1.113-1.355,2.141,2.141,0,0,1,.448-.053c1.211-.015,2.421-.006,3.629-.006,1.184,0,2.365-.009,3.549,0C68.859,300.63,69.418,301.14,69.439,302.006Z" transform="translate(-54.244 -285.011)" fill="#4169e2"/>
        <path id="Path_339" data-name="Path 339" d="M98.068,281.857c.009.919-.583,1.467-1.646,1.487-.919.018-1.838,0-2.757,0s-1.838.015-2.76,0a1.487,1.487,0,1,1,.038-2.945q2.717-.018,5.437,0C97.429,280.4,98.057,280.964,98.068,281.857Z" transform="translate(-76.828 -270.018)" fill="#4169e2"/>
        <path id="Path_340" data-name="Path 340" d="M63,322.071a1.485,1.485,0,0,1-1.523,1.443q-.093.009-.186.009c-.919.009-1.841,0-2.757,0s-1.841.012-2.76,0a1.434,1.434,0,0,1-1.608-1.446,1.466,1.466,0,0,1,1.646-1.5q2.443-.018,4.889,0l.627,0A1.51,1.51,0,0,1,63,322.071Z" transform="translate(-50.429 -299.819)" fill="#4169e2"/>
        <path id="Path_341" data-name="Path 341" d="M65,281.811a1.4,1.4,0,0,1-1.387,1.5c-.2.015-.392.021-.589.021-.13,0-.259,0-.389-.006-.029,0-.059,0-.085,0-.1,0-.2,0-.3,0-.032,0-.068,0-.1,0H62.04l-.23,0c-.115,0-.23,0-.345.006-.212.006-.421.006-.633,0-.094,0-.191-.009-.289-.015a1.446,1.446,0,0,1-1.4-1.5,1.426,1.426,0,0,1,1.4-1.423c1.022-.047,2.05-.044,3.072,0A1.407,1.407,0,0,1,65,281.811Z" transform="translate(-54.05 -269.991)" fill="#4169e2"/>
      </g>
    </g>
  </g>
</svg>
