<svg id="Layer_2" data-name="Layer 2" xmlns="http://www.w3.org/2000/svg" width="59.672" height="57.698" viewBox="0 0 59.672 57.698">
  <g id="Layer_1" data-name="Layer 1" transform="translate(0 0)">
    <g id="add_shopping_cart-1" data-name="add shopping cart-1">
      <path id="Path_27" data-name="Path 27" d="M43.148,42.032H23.8A11.039,11.039,0,0,1,12.986,33.1L9.218,13.458a4.98,4.98,0,0,0-3.9-3.951L2.385,8.9A3.055,3.055,0,0,1,3.607,3l2.933.611a10.977,10.977,0,0,1,8.574,8.7l3.8,19.643a5.02,5.02,0,0,0,4.918,4.073H43.179a5.02,5.02,0,0,0,4.674-3.218l6.415-16.792a3,3,0,1,1,5.6,2.159L53.433,34.955a11.069,11.069,0,0,1-10.285,7.077Z" transform="translate(-0.448 0.004)" fill="#fff"/>
      <circle id="Ellipse_4" data-name="Ellipse 4" cx="5.01" cy="5.01" r="5.01" transform="translate(37.415 47.678)" fill="#fff"/>
      <circle id="Ellipse_5" data-name="Ellipse 5" cx="5.01" cy="5.01" r="5.01" transform="translate(17.741 47.678)" fill="#fff"/>
      <path id="Path_28" data-name="Path 28" d="M45.786,15.152a3.055,3.055,0,0,1-4.246,0l-4.786-4.786V23.543a3,3,0,1,1-6.008,0V10.3L25.96,15.091a3.055,3.055,0,1,1-4.246-4.257L31.622.926h0A2.658,2.658,0,0,1,32.07.549l.163-.081a2.037,2.037,0,0,1,.356-.193l.2-.061L33.149.1A3.452,3.452,0,0,1,34.33.1L34.7.213l.2.061c.132.061.255.132.377.2l.132.071a4.074,4.074,0,0,1,.458.377l9.908,9.908A3.055,3.055,0,0,1,45.786,15.152Z" transform="translate(-0.083 -0.05)" fill="#fff"/>
    </g>
  </g>
</svg>
