<svg id="Layer_2" data-name="Layer 2" xmlns="http://www.w3.org/2000/svg" width="59" height="52.059" viewBox="0 0 59 52.059">
  <g id="Layer_1" data-name="Layer 1">
    <path id="mail" d="M48.5,0h-38A10.621,10.621,0,0,0,0,10.718V41.341A10.621,10.621,0,0,0,10.5,52.059h38A10.621,10.621,0,0,0,59,41.341V10.718A10.621,10.621,0,0,0,48.5,0Zm3.23,17.669-17.94,10.3a8.693,8.693,0,0,1-8.58,0L7.27,17.669a2.575,2.575,0,0,1-.207-4.608,2.458,2.458,0,0,1,2.667.209L27.66,23.477a3.7,3.7,0,0,0,3.68,0L49.27,13.27a2.456,2.456,0,0,1,2.546-.033,2.578,2.578,0,0,1-.086,4.473Z" fill="#fff"/>
  </g>
</svg>
