<svg id="Layer_2" data-name="Layer 2" xmlns="http://www.w3.org/2000/svg" width="29.307" height="29.296" viewBox="0 0 29.307 29.296">
  <g id="Layer_1" data-name="Layer 1" transform="translate(0 0)">
    <path id="navigation" d="M28.594.69A2.334,2.334,0,0,0,25.953.219l-24.6,11.3a2.349,2.349,0,0,0,.238,4.37l7.543,2.483,3.843-3.838a1.241,1.241,0,0,1,1.753,1.753L10.912,20.15l2.483,7.543a2.334,2.334,0,0,0,2.11,1.6h.129a2.334,2.334,0,0,0,2.13-1.366l11.3-24.6A2.334,2.334,0,0,0,28.594.69Z" transform="translate(0.023 -0.001)" fill="#fff"/>
  </g>
</svg>
