<svg xmlns="http://www.w3.org/2000/svg" width="29.296" height="25.324" viewBox="0 0 29.296 25.324">
  <g id="Layer_2" data-name="Layer 2" opacity="0.4">
    <g id="Layer_1" data-name="Layer 1">
      <g id="camera">
        <path id="Path_125" data-name="Path 125" d="M24.082,2.979H20.929L19.9.725A1.246,1.246,0,0,0,18.769,0H10.527A1.246,1.246,0,0,0,9.4.725L8.372,2.979H5.214A5.219,5.219,0,0,0,0,8.193V20.11a5.219,5.219,0,0,0,5.214,5.214H24.082A5.219,5.219,0,0,0,29.3,20.11V8.193a5.219,5.219,0,0,0-5.214-5.214ZM14.648,19.365a5.214,5.214,0,1,1,5.214-5.214,5.214,5.214,0,0,1-5.214,5.214Zm0-7.945a2.731,2.731,0,1,0,2.731,2.731,2.731,2.731,0,0,0-2.731-2.731Z" fill="#4169e2"/>
      </g>
    </g>
  </g>
</svg>
