<svg xmlns="http://www.w3.org/2000/svg" width="212" height="212" viewBox="0 0 212 212">
  <g id="Group_141" data-name="Group 141" transform="translate(-207 -4018)">
    <circle id="Ellipse_42" data-name="Ellipse 42" cx="106" cy="106" r="106" transform="translate(207 4018)" fill="#fff"/>
    <g id="Layer_2" data-name="Layer 2" transform="translate(269 4081)">
      <g id="Layer_1" data-name="Layer 1" transform="translate(0)">
        <g id="kiosk">
          <path id="Path_397" data-name="Path 397" d="M83.114,54.758H76.227V27.625A17.63,17.63,0,0,1,60.16,25.52a17.738,17.738,0,0,1-20.122,0,17.754,17.754,0,0,1-20.215,0A17.63,17.63,0,0,1,3.68,27.625V58.582a3.87,3.87,0,0,0,3.87,3.87h6.687a13.141,13.141,0,0,0,25.137,0H68.487v3.792a3.87,3.87,0,0,0,7.739,0V62.5h6.888a3.87,3.87,0,1,0,0-7.739ZM26.8,64.045a5.417,5.417,0,1,1,5.417-5.417A5.417,5.417,0,0,1,26.8,64.045Z" transform="translate(2.016 13.981)" fill="#6200EA"/>
          <path id="Path_398" data-name="Path 398" d="M21.762,30.585a11.624,11.624,0,0,0,20.215,0,11.609,11.609,0,0,0,20.2,0,11.64,11.64,0,0,0,21.762-5.82V22.459a13.652,13.652,0,0,0-1.9-6.857l-5.2-8.931A13.559,13.559,0,0,0,65.179,0H18.744A13.559,13.559,0,0,0,7.1,6.671L1.857,15.6A13.652,13.652,0,0,0,0,22.459v2.306a11.64,11.64,0,0,0,21.762,5.773Z" transform="translate(0)" fill="#6200EA"/>
        </g>
      </g>
    </g>
  </g>
</svg>
