<svg xmlns="http://www.w3.org/2000/svg" width="212" height="212" viewBox="0 0 212 212">
  <g id="Group_139" data-name="Group 139" transform="translate(-185 -4018)">
    <circle id="Ellipse_42" data-name="Ellipse 42" cx="106" cy="106" r="106" transform="translate(185 4018)" fill="#fff"/>
    <g id="Layer_2" data-name="Layer 2" transform="translate(250.566 4082.684)">
      <g id="Layer_1" data-name="Layer 1" transform="translate(0 0)">
        <g id="store">
          <path id="Path_602" data-name="Path 602" d="M79.757,15.533,74.914,7.2A14.672,14.672,0,0,0,62.332,0H19.445A14.644,14.644,0,0,0,6.863,7.2L2.005,15.533A14.573,14.573,0,0,0,0,22.848v2.175a12.85,12.85,0,0,0,22.213,8.868,12.808,12.808,0,0,0,18.739,0,12.822,12.822,0,0,0,18.683,0,12.85,12.85,0,0,0,22.213-8.84v-2.2a14.587,14.587,0,0,0-2.09-7.315Z" transform="translate(0 0)" fill="#4169e2"/>
          <path id="Path_603" data-name="Path 603" d="M57.544,30.18a19.77,19.77,0,0,1-18.683,0,19.77,19.77,0,0,1-18.668,0A19.77,19.77,0,0,1,4.9,31.592V56.276a14.616,14.616,0,0,0,14.6,14.6H58.236a14.616,14.616,0,0,0,14.587-14.6V31.606A19.77,19.77,0,0,1,57.53,30.194ZM48.027,61.346a2.471,2.471,0,0,1-2.471,2.471H30.728a2.471,2.471,0,0,1-2.471-2.471V54.483a10.111,10.111,0,0,1,9.264-10.21,9.885,9.885,0,0,1,10.535,9.885Z" transform="translate(2.02 12.438)" fill="#4169e2"/>
        </g>
      </g>
    </g>
  </g>
</svg>
