<svg xmlns="http://www.w3.org/2000/svg" width="108" height="108" viewBox="0 0 108 108">
  <g id="Group_115" data-name="Group 115" transform="translate(-651 -1670)">
    <circle id="Ellipse_27" data-name="Ellipse 27" cx="54" cy="54" r="54" transform="translate(651 1670)" fill="#4169e2" opacity="0.2"/>
    <g id="pickup_truck" data-name="pickup truck" transform="translate(683 1709)" fill="none">
      <path d="M44.991,11.538a.923.923,0,0,0-.076-.1,2.1,2.1,0,0,0-.061-.206l-.069-.137-.092-.175a.831.831,0,0,0-.1-.13l-.069-.114L35.841.656A1.884,1.884,0,0,0,34.392,0H26.461a1.906,1.906,0,0,0-1.906,1.906V9.99H1.906A1.906,1.906,0,0,0,0,11.9V23.434A1.906,1.906,0,0,0,1.906,25.34H5.285a5.7,5.7,0,0,0,10.767,0H29.389a5.7,5.7,0,0,0,10.767,0h2.928a1.906,1.906,0,0,0,1.906-1.906V11.9a1.845,1.845,0,0,0,0-.358ZM28.367,3.813h5.185L38.891,9.99H28.367ZM10.676,25.34a1.906,1.906,0,1,1,1.906-1.906A1.906,1.906,0,0,1,10.676,25.34Zm24.1,0a1.91,1.91,0,1,0-.008,0Z" stroke="none"/>
      <path d="M 34.41202926635742 -0.000148773193359375 C 34.40521240234375 -0.000148773193359375 34.39845657348633 -0.0001125335693359375 34.39163208007813 -4.00543212890625e-05 L 26.46097373962402 -4.00543212890625e-05 C 25.4080924987793 -4.00543212890625e-05 24.55456352233887 0.8534908294677734 24.55456352233887 1.906370162963867 L 24.55456352233887 9.989551544189453 L 1.906414031982422 9.989551544189453 C 0.8535232543945313 9.989551544189453 3.814697265625e-06 10.84308052062988 3.814697265625e-06 11.89595985412598 L 3.814697265625e-06 23.43356132507324 C 3.814697265625e-06 24.48644065856934 0.8535232543945313 25.3399715423584 1.906414031982422 25.3399715423584 L 5.284564971923828 25.3399715423584 C 6.085334777832031 27.6276912689209 8.244453430175781 29.15950012207031 10.66827392578125 29.15950012207031 C 13.09208297729492 29.15950012207031 15.2512035369873 27.6276912689209 16.05197334289551 25.3399715423584 L 29.38921356201172 25.3399715423584 C 30.18998336791992 27.6276912689209 32.34909439086914 29.15950012207031 34.77291107177734 29.15950012207031 C 37.19674301147461 29.15950012207031 39.35585403442383 27.6276912689209 40.15662384033203 25.3399600982666 L 43.08487319946289 25.3399715423584 C 44.13774490356445 25.3399715423584 44.99127197265625 24.48644065856934 44.99127197265625 23.43356132507324 L 44.99127197265625 11.89595985412598 C 45.00290298461914 11.77678108215332 45.00290298461914 11.65675163269043 44.99127197265625 11.53756141662598 C 44.96813201904297 11.50283050537109 44.94265365600586 11.46971130371094 44.91502380371094 11.43842124938965 C 44.8982048034668 11.36880111694336 44.87784194946289 11.30008125305176 44.85401153564453 11.23253059387207 L 44.78538513183594 11.09527015686035 L 44.69387435913086 10.91987991333008 C 44.66516494750977 10.87351989746094 44.63196182250977 10.83010101318359 44.59473419189453 10.79024124145508 L 44.5261116027832 10.67586135864258 L 35.84051513671875 0.6557712554931641 C 35.48249053955078 0.2391643524169922 34.96065139770508 -0.0001316070556640625 34.41202926635742 -0.000148773193359375 M 38.89076232910156 9.989551544189453 L 28.36738395690918 9.989551544189453 L 28.36738395690918 3.812780380249023 L 33.55281448364258 3.812780380249023 L 38.89076232910156 9.989551544189453 M 10.6758918762207 25.3399715423584 C 9.623012542724609 25.3399715423584 8.769481658935547 24.48644065856934 8.769481658935547 23.43356132507324 C 8.769481658935547 22.38068008422852 9.623012542724609 21.52715110778809 10.6758918762207 21.52715110778809 C 11.72877502441406 21.52715110778809 12.58230209350586 22.38068008422852 12.58230209350586 23.43356132507324 C 12.578125 24.48471069335938 11.72704315185547 25.33579063415527 10.6758918762207 25.3399715423584 M 34.77674102783203 25.3399658203125 C 34.77802276611328 25.33996963500977 34.77925872802734 25.3399715423584 34.78054428100586 25.3399715423584 L 34.77291107177734 25.3399715423584 C 34.77297973632813 25.3399715423584 34.77286529541016 25.3399715423584 34.77293395996094 25.3399715423584 C 34.77421951293945 25.3399715423584 34.77545166015625 25.33996963500977 34.77674102783203 25.3399658203125 C 33.72564315795898 25.33788681030273 32.8741455078125 24.48515510559082 32.8741455078125 23.43356132507324 C 32.8741455078125 22.38068008422852 33.7276725769043 21.52715110778809 34.78054428100586 21.52715110778809 C 35.83342361450195 21.52715110778809 36.68695449829102 22.38068008422852 36.68695449829102 23.43356132507324 C 36.68275833129883 24.48633003234863 35.82901000976563 25.33779525756836 34.77674102783203 25.3399658203125 M 34.41203308105469 -4.000148773193359 L 34.41210174560547 -4.000148773193359 L 34.41218566894531 -4.000148773193359 C 36.12527465820313 -4.000087738037109 37.74838638305664 -3.256439208984375 38.8670654296875 -1.959568023681641 L 47.54864501953125 8.055881500244141 L 47.77690505981445 8.319210052490234 L 47.89783096313477 8.520772933959961 C 47.96700286865234 8.616111755371094 48.03268051147461 8.713939666748047 48.09457397460938 8.813880920410156 L 48.17209243774414 8.939050674438477 L 48.24019241333008 9.069580078125 L 48.33170318603516 9.244970321655273 L 48.34766387939453 9.27556037902832 L 48.36309432983398 9.306421279907227 L 48.43172454833984 9.443679809570313 L 48.51897430419922 9.618183135986328 L 48.87514495849609 10.15275001525879 L 48.97236251831055 11.14910125732422 C 49.00104522705078 11.4429988861084 49.00734710693359 11.74012756347656 48.99127197265625 12.03543663024902 L 48.99127197265625 23.43356132507324 C 48.99127197265625 26.69037055969238 46.3416748046875 29.3399715423584 43.08487319946289 29.3399715423584 L 42.4881591796875 29.33996963500977 C 40.68508148193359 31.70015907287598 37.85103225708008 33.15950012207031 34.77291107177734 33.15950012207031 C 31.69480133056641 33.15950012207031 28.86075210571289 31.70015716552734 27.05767440795898 29.3399715423584 L 18.38351249694824 29.3399715423584 C 16.58043479919434 31.70015716552734 13.74638557434082 33.15950012207031 10.66827392578125 33.15950012207031 C 7.590160369873047 33.15950012207031 4.756107330322266 31.70015716552734 2.953025817871094 29.3399715423584 L 1.906414031982422 29.3399715423584 C -1.350395202636719 29.3399715423584 -3.999996185302734 26.69037055969238 -3.999996185302734 23.43356132507324 L -3.999996185302734 11.89595985412598 C -3.999996185302734 8.639150619506836 -1.350395202636719 5.989551544189453 1.906414031982422 5.989551544189453 L 20.55456352233887 5.989551544189453 L 20.55456352233887 1.906370162963867 C 20.55456352233887 -1.350439071655273 23.20416259765625 -4.000038146972656 26.46097373962402 -4.000038146972656 L 34.37628936767578 -4.000038146972656 C 34.38819122314453 -4.000110626220703 34.40008544921875 -4.000148773193359 34.41203308105469 -4.000148773193359 Z" stroke="none" fill="#4169e2"/>
    </g>
  </g>
</svg>
