<svg xmlns="http://www.w3.org/2000/svg" width="108" height="108" viewBox="0 0 108 108">
  <g id="Group_117" data-name="Group 117" transform="translate(-921 -1670)">
    <circle id="Ellipse_28" data-name="Ellipse 28" cx="54" cy="54" r="54" transform="translate(921 1670)" fill="#4169e2" opacity="0.2"/>
    <g id="Layer_2" data-name="Layer 2" transform="translate(909 1704)">
      <g id="Layer_1" data-name="Layer 1" transform="translate(44)">
        <g id="atm_machine" data-name="atm machine">
          <path id="Path_80" data-name="Path 80" d="M38.517,0H6.483A6.491,6.491,0,0,0,0,6.483V16.4a6.491,6.491,0,0,0,6.483,6.483H9.435V11.952H8.771a1.907,1.907,0,0,1,0-3.814H36.229a1.907,1.907,0,1,1,0,3.814h-.671v10.93h2.959A6.491,6.491,0,0,0,45,16.4V6.483A6.5,6.5,0,0,0,38.517,0Z" fill="#4169e2"/>
          <path id="Path_81" data-name="Path 81" d="M17.37,40.328a3.051,3.051,0,0,0,3.051,3.051H32.815a3.051,3.051,0,0,0,3.051-3.051V15.67H17.37ZM25.1,23.373v-.847A1.525,1.525,0,0,1,26.866,21a1.571,1.571,0,0,1,1.281,1.579v.473h.473A1.571,1.571,0,0,1,30.2,24.334,1.525,1.525,0,0,1,28.673,26.1H26.622a1.144,1.144,0,1,0,.053,2.288,3.592,3.592,0,0,1,3.219,1.4,4.316,4.316,0,0,1-1.747,6.7v.763a1.571,1.571,0,0,1-1.281,1.579A1.525,1.525,0,0,1,25.1,37.308v-.557h-.557a1.525,1.525,0,0,1-1.525-1.769A1.571,1.571,0,0,1,24.593,33.7h2.029a1.152,1.152,0,0,0,1.144-1.3,1.19,1.19,0,0,0-1.167-.931,4.187,4.187,0,0,1-1.5-8.092Z" transform="translate(-4.122 -3.718)" fill="#4169e2"/>
        </g>
      </g>
    </g>
  </g>
</svg>
