<svg xmlns="http://www.w3.org/2000/svg" width="212" height="212" viewBox="0 0 212 212">
  <g id="Group_140" data-name="Group 140" transform="translate(-185 -4018)">
    <circle id="Ellipse_42" data-name="Ellipse 42" cx="106" cy="106" r="106" transform="translate(185 4018)" fill="#fff"/>
    <g id="Layer_1" data-name="Layer 1" transform="translate(256 4082)">
      <path id="real_estate" data-name="real estate" d="M78.478,46.036H68.068V40.12A3.522,3.522,0,0,0,64.546,36.6H52.122V24.892A3.522,3.522,0,0,0,48.6,21.37H43.81V13.044a3.522,3.522,0,0,0-3.522-3.522H29.583v-6a3.522,3.522,0,1,0-7.043,0v6H11.847a3.522,3.522,0,0,0-3.522,3.522V21.37h-4.8A3.522,3.522,0,0,0,0,24.892v54.7a3.508,3.508,0,0,0,3.522,3.522H78.478A3.508,3.508,0,0,0,82,79.591V49.558A3.522,3.522,0,0,0,78.478,46.036ZM30.991,76.069H21.13V61.292a4.93,4.93,0,0,1,9.861,0Zm2.817-26.343h-15.5a3.522,3.522,0,0,1,0-7.043h15.5a3.522,3.522,0,1,1,0,7.043Zm0-11.974h-15.5a3.522,3.522,0,0,1,0-7.043h15.5a3.522,3.522,0,1,1,0,7.043ZM66.561,69.294a3.522,3.522,0,1,1-7.043,0V60.841a3.522,3.522,0,0,1,7.043,0Z" transform="translate(0)" fill="#4169e2"/>
    </g>
  </g>
</svg>
