<svg xmlns="http://www.w3.org/2000/svg" width="108" height="108" viewBox="0 0 108 108">
  <g id="Group_112" data-name="Group 112" transform="translate(-127 -1954)">
    <circle id="Ellipse_25" data-name="Ellipse 25" cx="54" cy="54" r="54" transform="translate(127 1954)" fill="#6200EA" opacity="0.2"/>
    <g id="Layer_1" data-name="Layer 1" transform="translate(163 1991)">
      <g id="like" transform="translate(0)">
        <g id="Path_402" data-name="Path 402" transform="translate(0 -9.018)" fill="none">
          <path d="M5.323,23.8h-1.5A3.826,3.826,0,0,0,0,27.651v7.093a3.826,3.826,0,0,0,3.826,3.82h1.5Z" stroke="none"/>
          <path d="M 3.825783729553223 23.80000305175781 C 2.806703805923462 23.80000305175781 1.829813718795776 24.20650482177734 1.111633777618408 24.92938232421875 C 0.3934836387634277 25.65219497680664 -0.006666183471679688 26.6317024230957 -4.625320434570313e-05 27.65067291259766 L -4.625320434570313e-05 34.74336242675781 C 0.003373622894287109 36.8538932800293 1.715253829956055 38.56298446655273 3.825783729553223 38.56298446655273 L 5.322573661804199 38.56298446655273 L 5.322573661804199 23.80000305175781 L 3.825783729553223 23.80000305175781 M 3.825783729553223 19.80000305175781 L 5.322573661804199 19.80000305175781 L 9.322573661804199 19.80000305175781 L 9.322573661804199 23.80000305175781 L 9.322573661804199 38.56298446655273 L 9.322573661804199 42.56298446655273 L 5.322573661804199 42.56298446655273 L 3.825783729553223 42.56298446655273 C -0.4824061393737793 42.56298446655273 -3.993056297302246 39.05802154541016 -4.000036239624023 34.74984359741211 L -4.000046730041504 34.74660491943359 L -4.000046730041504 34.74336242675781 L -4.000046730041504 27.662109375 C -4.009557723999023 25.59756851196289 -3.181173324584961 23.57481002807617 -1.725926399230957 22.11011505126953 C -0.2673864364624023 20.64203262329102 1.756163835525513 19.80000305175781 3.825783729553223 19.80000305175781 Z" stroke="none" fill="#6200EA"/>
        </g>
        <g id="Path_403" data-name="Path 403" transform="translate(-4.82)" fill="none">
          <path d="M12.956,29.545,15.9,31.625a8.2,8.2,0,0,0,4.745,1.5H32.017a4.969,4.969,0,0,0,4.689-3.317L40.842,18.2a4.969,4.969,0,0,0-4.689-6.652H26.632V6.913A6.919,6.919,0,0,0,19.726,0a2.646,2.646,0,0,0-2.64,2.64V8.807a1.081,1.081,0,0,1-.23.665l-4.136,5.31Z" stroke="none"/>
          <path d="M 20.63314628601074 33.12820434570313 C 20.63708686828613 33.12820434570313 20.64099502563477 33.12820434570313 20.64493560791016 33.12819671630859 L 32.0168342590332 33.12819671630859 C 32.01786422729492 33.12819671630859 32.01903915405273 33.12819671630859 32.02006530761719 33.12819671630859 C 34.12721252441406 33.12819671630859 36.00526809692383 31.79912567138672 36.70595550537109 29.81164741516113 L 40.84232330322266 18.1975269317627 C 41.39129638671875 16.67278671264648 41.16219329833984 14.97613716125488 40.22847366333008 13.65160751342773 C 39.29753875732422 12.33104801177979 37.78264236450195 11.54578685760498 36.16752624511719 11.54578685760498 C 36.16268157958984 11.54578685760498 36.15804290771484 11.5457935333252 36.15319442749023 11.54580688476563 L 26.63210487365723 11.54580688476563 L 26.63210487365723 6.912577152252197 C 26.62868499755859 3.09870719909668 23.53960418701172 0.006847153883427382 19.72573471069336 -2.846069264705875e-06 C 18.26935577392578 0.003417153842747211 17.08957481384277 1.183197140693665 17.0861644744873 2.639577150344849 L 17.0861644744873 8.806857109069824 C 17.08579444885254 9.047797203063965 17.00490570068359 9.281706809997559 16.85636520385742 9.471406936645508 L 12.71999454498291 14.78160762786865 L 12.95601463317871 29.54458808898926 L 15.89990520477295 31.62519645690918 C 17.28456687927246 32.60318374633789 18.93812942504883 33.12819671630859 20.63314628601074 33.12820434570313 M 20.63314437866211 37.12820816040039 L 20.63312530517578 37.12820816040039 C 18.0977954864502 37.12819671630859 15.66310501098633 36.35506820678711 13.59225463867188 34.89241790771484 L 10.64737510681152 32.81111526489258 L 8.988985061645508 31.6390380859375 L 8.956524848937988 29.6085262298584 L 8.720504760742188 14.84554672241211 L 8.697964668273926 13.43582725524902 L 9.564374923706055 12.32354736328125 L 13.08616542816162 7.802334308624268 L 13.08616542816162 2.639577150344849 L 13.08616542816162 2.634897232055664 L 13.08617496490479 2.630207061767578 C 13.0903148651123 0.8609471321105957 13.78159523010254 -0.8024328351020813 15.03265476226807 -2.053492784500122 C 16.28371429443359 -3.30456280708313 17.94707489013672 -3.995832920074463 19.71634483337402 -3.999992847442627 L 19.72463417053223 -4.000012874603271 L 19.7329158782959 -3.999992847442627 C 22.64388465881348 -3.994772911071777 25.38009452819824 -2.857792854309082 27.43753433227539 -0.7985028624534607 C 29.49497413635254 1.260787129402161 30.62949562072754 3.998027086257935 30.63210487365723 6.908987045288086 L 30.63210487365723 7.545807361602783 L 36.15247344970703 7.545807361602783 L 36.16752624511719 7.545787334442139 C 39.07959365844727 7.545787334442139 41.81987380981445 8.966756820678711 43.49776458740234 11.34688758850098 C 45.18012619018555 13.73340606689453 45.5950813293457 16.7977123260498 44.60836410522461 19.54548454284668 L 40.47539138793945 31.15007019042969 C 39.21060562133789 34.72612380981445 35.81382369995117 37.12819671630859 32.02006530761719 37.12819671630859 L 20.64493560791016 37.12819671630859 L 20.63314437866211 37.12820816040039 Z" stroke="none" fill="#6200EA"/>
        </g>
      </g>
    </g>
  </g>
</svg>
