<svg xmlns="http://www.w3.org/2000/svg" width="30.022" height="34.063" viewBox="0 0 30.022 34.063">
  <g id="Layer_2" data-name="Layer 2" transform="translate(-0.038 -0.36)" opacity="0.4">
    <g id="Layer_1" data-name="Layer 1" transform="translate(0.038 0.36)">
      <g id="forward_5" data-name="forward 5">
        <path id="Path_317" data-name="Path 317" d="M27.758,11.441a1.716,1.716,0,0,0-2.907,1.825A11.623,11.623,0,1,1,14.666,7.86l-2.18,2.174A1.715,1.715,0,0,0,13.7,12.941a1.686,1.686,0,0,0,1.209-.5l4.7-4.692a.994.994,0,0,1,.064-.081l.116-.14c.029-.047.058-.093.081-.14a1.25,1.25,0,0,0,.081-.151c0-.052.047-.11.064-.163s.029-.07.041-.11a.128.128,0,0,1,0-.047c0-.058,0-.116,0-.169a.89.89,0,0,0,0-.174V6.534a.716.716,0,0,0,0-.11,1.836,1.836,0,0,0,0-.186L20.02,6.1l-.029-.134a1.4,1.4,0,0,0-.064-.134c0-.052-.052-.11-.087-.163a1.413,1.413,0,0,0-.081-.116l-.122-.169V5.342L14.91.651a1.744,1.744,0,0,0-2.424,2.407l1.389,1.389a15.011,15.011,0,1,0,13.883,6.976Z" transform="translate(-0.038 -0.36)" fill="#4169e2"/>
      </g>
    </g>
  </g>
</svg>
