<svg xmlns="http://www.w3.org/2000/svg" width="48" height="48" viewBox="0 0 48 48">
  <g id="Group_106" data-name="Group 106" transform="translate(-1055 -295.284)">
    <circle id="Ellipse_36" data-name="Ellipse 36" cx="24" cy="24" r="24" transform="translate(1055 295.284)" fill="#4169e2"/>
    <g id="Layer_2" data-name="Layer 2" transform="translate(1073.058 305.004) rotate(16)">
      <g id="Layer_1" data-name="Layer 1" transform="translate(0 0)">
        <g id="notifications">
          <path id="Path_453" data-name="Path 453" d="M18.7,14.668l-1.01-1.495a2.34,2.34,0,0,1-.4-1.319V7.715A7.715,7.715,0,0,0,9.216.008,7.8,7.8,0,0,0,1.87,7.9v3.952a2.34,2.34,0,0,1-.4,1.319L.459,14.668a2.677,2.677,0,0,0,2.216,4.176H16.482A2.677,2.677,0,0,0,18.7,14.668Z" fill="#fff"/>
          <path id="Path_454" data-name="Path 454" d="M4.677,3.206A5.01,5.01,0,0,0,9.334,0H0A5.006,5.006,0,0,0,4.677,3.206Z" transform="translate(4.911 20.447)" fill="#fff"/>
        </g>
      </g>
    </g>
  </g>
</svg>
