<svg id="Layer_1" data-name="Layer 1" xmlns="http://www.w3.org/2000/svg" width="28.41" height="21.669" viewBox="0 0 28.41 21.669">
  <g id="id">
    <path id="Path_381" data-name="Path 381" d="M24.317,0H4.093A4.1,4.1,0,0,0,0,4.093V17.576a4.1,4.1,0,0,0,4.093,4.093H24.317a4.1,4.1,0,0,0,4.093-4.093V4.093A4.1,4.1,0,0,0,24.317,0ZM9.871,5.5A2.408,2.408,0,1,1,7.464,7.912,2.408,2.408,0,0,1,9.871,5.5Zm3.1,10.661H6.775a.746.746,0,0,1-.737-.905,3.939,3.939,0,0,1,7.666,0,.746.746,0,0,1-.737.905Zm9.424-1.238H18.057a1.2,1.2,0,0,1,0-2.408h4.334a1.2,1.2,0,0,1,0,2.408Zm0-5.778H18.057a1.2,1.2,0,1,1,0-2.408h4.334a1.2,1.2,0,0,1,0,2.408Z" fill="#555"/>
  </g>
</svg>
