<svg xmlns="http://www.w3.org/2000/svg" width="20.668" height="20.668" viewBox="0 0 20.668 20.668">
  <g id="Layer_2" data-name="Layer 2" opacity="0.5">
    <g id="Layer_1" data-name="Layer 1">
      <g id="add_post" data-name="add post">
        <path id="Path_25" data-name="Path 25" d="M16.879,20.668H3.789A3.789,3.789,0,0,1,0,16.879V3.789A3.789,3.789,0,0,1,3.789,0h6.545a1.033,1.033,0,1,1,0,2.067H3.789A1.722,1.722,0,0,0,2.067,3.789v13.09A1.722,1.722,0,0,0,3.789,18.6h13.09A1.722,1.722,0,0,0,18.6,16.879V10.334a1.033,1.033,0,1,1,2.067,0v6.545A3.789,3.789,0,0,1,16.879,20.668Z" fill="#150f3f"/>
        <path id="Path_26" data-name="Path 26" d="M21.064,13.519Zm9.99-9.99L28.27.743a.834.834,0,0,0-1.182,0l-1.8,1.8,3.965,3.982,1.8-1.8a.83.83,0,0,0,0-1.2ZM17.692,10.14a.841.841,0,0,0-.22.382l-.958,3.744A.83.83,0,0,0,17.547,15.3l3.727-.975a.841.841,0,0,0,.382-.22l6.418-6.418L24.109,3.723Z" transform="translate(-10.802 -0.326)" fill="#150f3f"/>
      </g>
    </g>
  </g>
</svg>
