<svg id="Layer_1" data-name="Layer 1" xmlns="http://www.w3.org/2000/svg" width="28.41" height="21.965" viewBox="0 0 28.41 21.965">
  <g id="cached">
    <path id="Path_112" data-name="Path 112" d="M38.2,16.519,34.267,12.3a1.49,1.49,0,0,0-2.121-.075l-4.218,3.934a1.5,1.5,0,0,0,2.047,2.206l2.255-2.1a9.19,9.19,0,0,1-12.717,8.976,1.49,1.49,0,0,0-1.143,2.752,12.156,12.156,0,0,0,16.81-10.348l.844.9A1.49,1.49,0,1,0,38.2,16.519Z" transform="translate(-10.243 -6.969)" fill="#555"/>
    <path id="Path_113" data-name="Path 113" d="M20.233.93A12.161,12.161,0,0,0,3.423,11.247l-.844-.9A1.49,1.49,0,1,0,.4,12.38L4.337,16.6a1.49,1.49,0,0,0,1.033.472h.055a1.49,1.49,0,0,0,.994-.4l4.222-3.934a1.49,1.49,0,1,0-2.032-2.181l-2.25,2.1A9.19,9.19,0,0,1,19.091,3.677,1.49,1.49,0,1,0,20.233.93Z" transform="translate(0 0.008)" fill="#555"/>
  </g>
</svg>
