<svg id="Layer_1" data-name="Layer 1" xmlns="http://www.w3.org/2000/svg" width="28.41" height="21.779" viewBox="0 0 28.41 21.779">
  <g id="credit_card" data-name="credit card">
    <path id="Path_166" data-name="Path 166" d="M23.2,0H5.21A5.215,5.215,0,0,0,0,5.21V16.574a5.215,5.215,0,0,0,5.21,5.205H23.2a5.215,5.215,0,0,0,5.21-5.205V5.21A5.215,5.215,0,0,0,23.2,0ZM5.21,2.841H23.2A2.374,2.374,0,0,1,25.569,5.21v1.1H2.841V5.21A2.374,2.374,0,0,1,5.21,2.841Zm17.99,16.1H5.21a2.369,2.369,0,0,1-2.369-2.364V9.149H25.569v7.425A2.369,2.369,0,0,1,23.2,18.938Z" fill="#555"/>
    <path id="Path_167" data-name="Path 167" d="M18.865,29.061H11.29a1.42,1.42,0,0,1,0-2.841h7.574a1.42,1.42,0,1,1,0,2.841Z" transform="translate(-5.117 -13.594)" fill="#555"/>
  </g>
</svg>
