<svg id="Layer_1" data-name="Layer 1" xmlns="http://www.w3.org/2000/svg" width="28.41" height="25.039" viewBox="0 0 28.41 25.039">
  <g id="atm_machine" data-name="atm machine">
    <path id="Path_80" data-name="Path 80" d="M24.317,0H4.093A4.1,4.1,0,0,0,0,4.093v6.26a4.1,4.1,0,0,0,4.093,4.093H5.956v-6.9H5.538a1.2,1.2,0,0,1,0-2.408H22.872a1.2,1.2,0,0,1,0,2.408h-.424v6.9h1.868a4.1,4.1,0,0,0,4.093-4.093V4.093A4.1,4.1,0,0,0,24.317,0Z" fill="#555"/>
    <path id="Path_81" data-name="Path 81" d="M17.37,31.238A1.926,1.926,0,0,0,19.3,33.164h7.825a1.926,1.926,0,0,0,1.926-1.926V15.67H17.37Zm4.878-10.7V20a.963.963,0,0,1,1.117-.963.992.992,0,0,1,.809,1v.3h.3a.992.992,0,0,1,1,.809.963.963,0,0,1-.963,1.117h-1.3a.722.722,0,1,0,.034,1.445,2.268,2.268,0,0,1,2.032.886,2.725,2.725,0,0,1-1.1,4.228V29.3a.992.992,0,0,1-.809,1,.963.963,0,0,1-1.117-.963v-.352H21.9a.963.963,0,0,1-.963-1.117.992.992,0,0,1,1-.809h1.281a.727.727,0,0,0,.722-.823.751.751,0,0,0-.737-.587,2.644,2.644,0,0,1-.949-5.109Z" transform="translate(-9.006 -8.125)" fill="#555"/>
  </g>
</svg>
