<svg id="Layer_2" data-name="Layer 2" xmlns="http://www.w3.org/2000/svg" width="28.41" height="28.41" viewBox="0 0 28.41 28.41">
  <g id="Layer_1" data-name="Layer 1" transform="translate(0)">
    <g id="help">
      <path id="Path_373" data-name="Path 373" d="M14.2,0a14.2,14.2,0,1,0,14.2,14.2A14.2,14.2,0,0,0,14.2,0Zm-.356,22.112a1.445,1.445,0,1,1,1.445-1.445A1.445,1.445,0,0,1,13.849,22.112Zm2.475-6.929a1.806,1.806,0,0,0-1.271,1.733,1.2,1.2,0,0,1-2.408,0,4.2,4.2,0,0,1,2.966-4.035,1.811,1.811,0,0,0,1.276-1.733,2.682,2.682,0,0,0-5.359,0,1.2,1.2,0,1,1-2.408,0,5.09,5.09,0,0,1,10.175,0A4.209,4.209,0,0,1,16.324,15.182Z" fill="#b5b6bb"/>
    </g>
  </g>
</svg>
