<svg id="Layer_1" data-name="Layer 1" xmlns="http://www.w3.org/2000/svg" width="27.909" height="28.41" viewBox="0 0 27.909 28.41">
  <g id="store">
    <path id="Path_602" data-name="Path 602" d="M27.2,5.3,25.545,2.456A5,5,0,0,0,21.254,0H6.631A4.993,4.993,0,0,0,2.34,2.456L.684,5.3A4.969,4.969,0,0,0,0,7.791v.742a4.382,4.382,0,0,0,7.574,3.024,4.367,4.367,0,0,0,6.39,0,4.372,4.372,0,0,0,6.371,0,4.382,4.382,0,0,0,7.574-3.014V7.791A4.974,4.974,0,0,0,27.2,5.3Z" transform="translate(0 0)" fill="#555"/>
    <path id="Path_603" data-name="Path 603" d="M22.851,30.18a6.741,6.741,0,0,1-6.371,0,6.741,6.741,0,0,1-6.366,0,6.741,6.741,0,0,1-5.215.482v8.417a4.984,4.984,0,0,0,4.979,4.979H23.087a4.984,4.984,0,0,0,4.974-4.979V30.666a6.741,6.741,0,0,1-5.215-.482ZM19.606,40.807a.843.843,0,0,1-.843.843H13.707a.843.843,0,0,1-.843-.843v-2.34a3.448,3.448,0,0,1,3.159-3.481,3.371,3.371,0,0,1,3.592,3.371Z" transform="translate(-2.54 -15.648)" fill="#555"/>
  </g>
</svg>
