<svg id="Layer_1" data-name="Layer 1" xmlns="http://www.w3.org/2000/svg" width="27.499" height="27.499" viewBox="0 0 27.499 27.499">
  <g id="apps">
    <path id="Path_72" data-name="Path 72" d="M10.487,11.652H1.165A1.165,1.165,0,0,1,0,10.487V1.165A1.165,1.165,0,0,1,1.165,0h9.322a1.165,1.165,0,0,1,1.165,1.165v9.322A1.165,1.165,0,0,1,10.487,11.652Z" fill="#4169e2"/>
    <path id="Path_73" data-name="Path 73" d="M44.487,11.652H35.165A1.165,1.165,0,0,1,34,10.487V1.165A1.165,1.165,0,0,1,35.165,0h9.322a1.165,1.165,0,0,1,1.165,1.165v9.322A1.165,1.165,0,0,1,44.487,11.652Z" transform="translate(-18.153 0)" fill="#4169e2"/>
    <path id="Path_74" data-name="Path 74" d="M10.487,45.652H1.165A1.165,1.165,0,0,1,0,44.487V35.165A1.165,1.165,0,0,1,1.165,34h9.322a1.165,1.165,0,0,1,1.165,1.165v9.322A1.165,1.165,0,0,1,10.487,45.652Z" transform="translate(0 -18.153)" fill="#4169e2"/>
    <path id="Path_75" data-name="Path 75" d="M44.487,45.652H35.165A1.165,1.165,0,0,1,34,44.487V35.165A1.165,1.165,0,0,1,35.165,34h9.322a1.165,1.165,0,0,1,1.165,1.165v9.322A1.165,1.165,0,0,1,44.487,45.652Z" transform="translate(-18.153 -18.153)" fill="#4169e2"/>
  </g>
</svg>
